<svg width="1440" height="871" viewBox="0 0 1440 871" fill="none" xmlns="http://www.w3.org/2000/svg">
<line opacity="0.08" x1="241" y1="4.37114e-08" x2="241" y2="871" stroke="white" style="stroke:white;stroke-opacity:1;" stroke-width="2"/>
<line opacity="0.08" x1="1" y1="4.37114e-08" x2="0.999962" y2="871" stroke="white" style="stroke:white;stroke-opacity:1;" stroke-width="2"/>
<line opacity="0.08" x1="481" y1="4.37114e-08" x2="481" y2="871" stroke="white" style="stroke:white;stroke-opacity:1;" stroke-width="2"/>
<line opacity="0.08" x1="-8.74228e-08" y1="158" x2="1440" y2="158" stroke="white" style="stroke:white;stroke-opacity:1;" stroke-width="2"/>
<line opacity="0.08" x1="-8.74228e-08" y1="286" x2="1440" y2="286" stroke="white" style="stroke:white;stroke-opacity:1;" stroke-width="2"/>
<line opacity="0.08" x1="-8.74228e-08" y1="414" x2="1440" y2="414" stroke="white" style="stroke:white;stroke-opacity:1;" stroke-width="2"/>
<line opacity="0.08" x1="-8.74228e-08" y1="542" x2="1440" y2="542" stroke="white" style="stroke:white;stroke-opacity:1;" stroke-width="2"/>
<line opacity="0.08" x1="-8.74228e-08" y1="670" x2="1440" y2="670" stroke="white" style="stroke:white;stroke-opacity:1;" stroke-width="2"/>
<line opacity="0.08" x1="-8.74228e-08" y1="798" x2="1440" y2="798" stroke="white" style="stroke:white;stroke-opacity:1;" stroke-width="2"/>
<line opacity="0.08" x1="721" y1="4.37114e-08" x2="721" y2="871" stroke="white" style="stroke:white;stroke-opacity:1;" stroke-width="2"/>
<line opacity="0.08" x1="961" y1="4.37114e-08" x2="961" y2="871" stroke="white" style="stroke:white;stroke-opacity:1;" stroke-width="2"/>
<line opacity="0.08" x1="1201" y1="4.37114e-08" x2="1201" y2="871" stroke="white" style="stroke:white;stroke-opacity:1;" stroke-width="2"/>
</svg>
